<svg xmlns="http://www.w3.org/2000/svg" viewBox="0 0 1200 630"><rect width="1200" height="630" fill="#171b19"/><g transform="translate(92 100) scale(4)" fill="none" stroke="#bce3ce" stroke-width="1.5" stroke-linecap="round" stroke-linejoin="round"><path d="M14 18a2 2 0 0 0-4 0 M19 11l-2.11-6.657a2 2 0 0 0-2.752-1.148l-1.276.61A2 2 0 0 1 12 4H8.5a2 2 0 0 0-1.925 1.456L5 11 M2 11h20 M20 18a3 3 0 1 1-6 0a3 3 0 1 1 6 0Z M10 18a3 3 0 1 1-6 0a3 3 0 1 1 6 0Z"/></g><g fill="#f6f6f3" font-family="system-ui,sans-serif"><text x="92" y="345" font-size="92" font-weight="700">Incodex</text><text x="92" y="425" font-size="35">A private window for Codex.</text><text x="92" y="536" font-size="23" fill="#bce3ce">Manual · Commands · Installation · Privacy</text></g></svg>